<svg width="768" height="200" viewBox="0 0 768 200" fill="none" xmlns="http://www.w3.org/2000/svg">
<g filter="url(#filter0_b_1_141)">
<rect width="768" height="200" rx="24" fill="#FEFEFE" fill-opacity="0.1"/>
<path d="M110 63.3333H120C122.189 63.3333 124.356 63.7643 126.378 64.6019C128.4 65.4395 130.237 66.6672 131.785 68.2148C133.333 69.7624 134.56 71.5998 135.398 73.6219C136.236 75.644 136.667 77.8112 136.667 79.9999C136.667 82.1886 136.236 84.3559 135.398 86.378C134.56 88.4001 133.333 90.2374 131.785 91.785C130.237 93.3327 128.4 94.5603 126.378 95.3979C124.356 96.2355 122.189 96.6666 120 96.6666H110M90 96.6666H80C77.8113 96.6666 75.644 96.2355 73.6219 95.3979C71.5998 94.5603 69.7625 93.3327 68.2149 91.785C65.0893 88.6594 63.3333 84.4202 63.3333 79.9999C63.3333 75.5796 65.0893 71.3404 68.2149 68.2148C71.3405 65.0892 75.5797 63.3333 80 63.3333H90" stroke="#141414" stroke-width="2" stroke-linecap="round" stroke-linejoin="round"/>
<path d="M86.6667 80H113.333" stroke="#141414" stroke-width="2" stroke-linecap="round" stroke-linejoin="round"/>
<path d="M182 63.3333H192C194.189 63.3333 196.356 63.7643 198.378 64.6019C200.4 65.4395 202.237 66.6672 203.785 68.2148C205.333 69.7624 206.56 71.5998 207.398 73.6219C208.236 75.644 208.667 77.8112 208.667 79.9999C208.667 82.1886 208.236 84.3559 207.398 86.378C206.56 88.4001 205.333 90.2374 203.785 91.785C202.237 93.3327 200.4 94.5603 198.378 95.3979C196.356 96.2355 194.189 96.6666 192 96.6666H182M162 96.6666H152C149.811 96.6666 147.644 96.2355 145.622 95.3979C143.6 94.5603 141.763 93.3327 140.215 91.785C137.089 88.6594 135.333 84.4202 135.333 79.9999C135.333 75.5796 137.089 71.3404 140.215 68.2148C143.34 65.0892 147.58 63.3333 152 63.3333H162" stroke="#141414" stroke-width="2" stroke-linecap="round" stroke-linejoin="round"/>
<path d="M158.667 80H185.333" stroke="#141414" stroke-width="2" stroke-linecap="round" stroke-linejoin="round"/>
<path d="M254 63.3333H264C266.189 63.3333 268.356 63.7643 270.378 64.6019C272.4 65.4395 274.237 66.6672 275.785 68.2148C277.333 69.7624 278.56 71.5998 279.398 73.6219C280.236 75.644 280.667 77.8112 280.667 79.9999C280.667 82.1886 280.236 84.3559 279.398 86.378C278.56 88.4001 277.333 90.2374 275.785 91.785C274.237 93.3327 272.4 94.5603 270.378 95.3979C268.356 96.2355 266.189 96.6666 264 96.6666H254M234 96.6666H224C221.811 96.6666 219.644 96.2355 217.622 95.3979C215.6 94.5603 213.763 93.3327 212.215 91.785C209.089 88.6594 207.333 84.4202 207.333 79.9999C207.333 75.5796 209.089 71.3404 212.215 68.2148C215.34 65.0892 219.58 63.3333 224 63.3333H234" stroke="#141414" stroke-width="2" stroke-linecap="round" stroke-linejoin="round"/>
<path d="M230.667 80H257.333" stroke="#141414" stroke-width="2" stroke-linecap="round" stroke-linejoin="round"/>
<path d="M304 79C303.448 79 303 79.4477 303 80C303 80.5523 303.448 81 304 81V79ZM344 80L334 74.2265V85.7735L344 80ZM304 81H335V79H304V81Z" fill="#005AE2"/>
<path d="M414 63.3333H424C426.189 63.3333 428.356 63.7643 430.378 64.6019C432.4 65.4395 434.237 66.6672 435.785 68.2148C437.333 69.7624 438.56 71.5998 439.398 73.6219C440.236 75.644 440.667 77.8112 440.667 79.9999C440.667 82.1886 440.236 84.3559 439.398 86.378C438.56 88.4001 437.333 90.2374 435.785 91.785C434.237 93.3327 432.4 94.5603 430.378 95.3979C428.356 96.2355 426.189 96.6666 424 96.6666H414M394 96.6666H384C381.811 96.6666 379.644 96.2355 377.622 95.3979C375.6 94.5603 373.763 93.3327 372.215 91.785C369.089 88.6594 367.333 84.4202 367.333 79.9999C367.333 75.5796 369.089 71.3404 372.215 68.2148C375.34 65.0892 379.58 63.3333 384 63.3333H394" stroke="#141414" stroke-width="2" stroke-linecap="round" stroke-linejoin="round"/>
<path d="M390.667 80H417.333" stroke="#141414" stroke-width="2" stroke-linecap="round" stroke-linejoin="round"/>
<path d="M65.1285 152.208C64.0832 152.208 63.1872 151.963 62.4405 151.472C61.7045 150.981 61.1872 150.309 60.8885 149.456L62.1685 148.72C62.6058 150.075 63.6032 150.752 65.1605 150.752C65.9285 150.752 66.5152 150.597 66.9205 150.288C67.3258 149.968 67.5285 149.547 67.5285 149.024C67.5285 148.491 67.3258 148.091 66.9205 147.824C66.5152 147.557 65.8378 147.275 64.8885 146.976C64.4192 146.827 64.0618 146.709 63.8165 146.624C63.5712 146.528 63.2618 146.389 62.8885 146.208C62.5258 146.016 62.2538 145.824 62.0725 145.632C61.8912 145.429 61.7258 145.168 61.5765 144.848C61.4378 144.528 61.3685 144.165 61.3685 143.76C61.3685 142.789 61.7098 142.021 62.3925 141.456C63.0752 140.88 63.9072 140.592 64.8885 140.592C65.7738 140.592 66.5418 140.816 67.1925 141.264C67.8538 141.712 68.3498 142.304 68.6805 143.04L67.4325 143.76C66.9525 142.608 66.1045 142.032 64.8885 142.032C64.2805 142.032 63.7898 142.181 63.4165 142.48C63.0432 142.779 62.8565 143.184 62.8565 143.696C62.8565 144.187 63.0325 144.56 63.3845 144.816C63.7365 145.072 64.3445 145.339 65.2085 145.616C65.5178 145.712 65.7365 145.781 65.8645 145.824C65.9925 145.867 66.1898 145.941 66.4565 146.048C66.7338 146.155 66.9365 146.24 67.0645 146.304C67.1925 146.368 67.3632 146.459 67.5765 146.576C67.8005 146.693 67.9658 146.805 68.0725 146.912C68.1792 147.019 68.3018 147.152 68.4405 147.312C68.5898 147.461 68.6965 147.616 68.7605 147.776C68.8245 147.936 68.8778 148.123 68.9205 148.336C68.9738 148.539 69.0005 148.757 69.0005 148.992C69.0005 149.973 68.6432 150.757 67.9285 151.344C67.2138 151.92 66.2805 152.208 65.1285 152.208ZM71.782 148.64C71.9207 149.355 72.246 149.909 72.758 150.304C73.2807 150.699 73.9207 150.896 74.678 150.896C75.734 150.896 76.502 150.507 76.982 149.728L78.166 150.4C77.3873 151.605 76.214 152.208 74.646 152.208C73.3767 152.208 72.342 151.813 71.542 151.024C70.7527 150.224 70.358 149.216 70.358 148C70.358 146.795 70.7473 145.792 71.526 144.992C72.3047 144.192 73.3127 143.792 74.55 143.792C75.7233 143.792 76.678 144.208 77.414 145.04C78.1607 145.861 78.534 146.853 78.534 148.016C78.534 148.219 78.518 148.427 78.486 148.64H71.782ZM74.55 145.104C73.8033 145.104 73.1847 145.317 72.694 145.744C72.2033 146.16 71.8993 146.72 71.782 147.424H77.126C77.0087 146.667 76.71 146.091 76.23 145.696C75.75 145.301 75.19 145.104 74.55 145.104ZM86.7425 144H88.1345V152H86.7425V150.624C86.0492 151.68 85.0412 152.208 83.7185 152.208C82.5985 152.208 81.6438 151.803 80.8545 150.992C80.0652 150.171 79.6705 149.173 79.6705 148C79.6705 146.827 80.0652 145.835 80.8545 145.024C81.6438 144.203 82.5985 143.792 83.7185 143.792C85.0412 143.792 86.0492 144.32 86.7425 145.376V144ZM83.8945 150.864C84.7052 150.864 85.3825 150.592 85.9265 150.048C86.4705 149.493 86.7425 148.811 86.7425 148C86.7425 147.189 86.4705 146.512 85.9265 145.968C85.3825 145.413 84.7052 145.136 83.8945 145.136C83.0945 145.136 82.4225 145.413 81.8785 145.968C81.3345 146.512 81.0625 147.189 81.0625 148C81.0625 148.811 81.3345 149.493 81.8785 150.048C82.4225 150.592 83.0945 150.864 83.8945 150.864ZM98.8835 143.792C99.7795 143.792 100.505 144.085 101.06 144.672C101.614 145.248 101.892 146.032 101.892 147.024V152H100.5V147.072C100.5 146.453 100.34 145.973 100.02 145.632C99.6995 145.291 99.2728 145.12 98.7395 145.12C98.1422 145.12 97.6622 145.323 97.2995 145.728C96.9475 146.123 96.7715 146.731 96.7715 147.552V152H95.3795V147.072C95.3795 146.453 95.2248 145.973 94.9155 145.632C94.6168 145.291 94.2062 145.12 93.6835 145.12C93.0968 145.12 92.6062 145.323 92.2115 145.728C91.8275 146.133 91.6355 146.741 91.6355 147.552V152H90.2435V144H91.6355V145.072C92.1795 144.219 92.9742 143.792 94.0195 143.792C95.0968 143.792 95.8808 144.245 96.3715 145.152C96.9262 144.245 97.7635 143.792 98.8835 143.792ZM103.822 152V140.32H105.214V152H103.822ZM108.313 148.64C108.452 149.355 108.777 149.909 109.289 150.304C109.812 150.699 110.452 150.896 111.209 150.896C112.265 150.896 113.033 150.507 113.513 149.728L114.697 150.4C113.919 151.605 112.745 152.208 111.177 152.208C109.908 152.208 108.873 151.813 108.073 151.024C107.284 150.224 106.889 149.216 106.889 148C106.889 146.795 107.279 145.792 108.057 144.992C108.836 144.192 109.844 143.792 111.081 143.792C112.255 143.792 113.209 144.208 113.945 145.04C114.692 145.861 115.065 146.853 115.065 148.016C115.065 148.219 115.049 148.427 115.017 148.64H108.313ZM111.081 145.104C110.335 145.104 109.716 145.317 109.225 145.744C108.735 146.16 108.431 146.72 108.313 147.424H113.657C113.54 146.667 113.241 146.091 112.761 145.696C112.281 145.301 111.721 145.104 111.081 145.104ZM117.553 146.16C117.553 146.469 117.708 146.72 118.017 146.912C118.326 147.093 118.7 147.243 119.137 147.36C119.574 147.467 120.012 147.595 120.449 147.744C120.886 147.883 121.26 148.128 121.569 148.48C121.878 148.821 122.033 149.264 122.033 149.808C122.033 150.533 121.75 151.115 121.185 151.552C120.63 151.989 119.916 152.208 119.041 152.208C118.262 152.208 117.596 152.037 117.041 151.696C116.486 151.355 116.092 150.901 115.857 150.336L117.057 149.648C117.185 150.032 117.425 150.336 117.777 150.56C118.129 150.784 118.55 150.896 119.041 150.896C119.5 150.896 119.878 150.811 120.177 150.64C120.476 150.459 120.625 150.181 120.625 149.808C120.625 149.499 120.47 149.253 120.161 149.072C119.852 148.88 119.478 148.731 119.041 148.624C118.604 148.507 118.166 148.373 117.729 148.224C117.292 148.075 116.918 147.829 116.609 147.488C116.3 147.147 116.145 146.709 116.145 146.176C116.145 145.483 116.412 144.912 116.945 144.464C117.489 144.016 118.166 143.792 118.977 143.792C119.628 143.792 120.204 143.941 120.705 144.24C121.217 144.528 121.601 144.933 121.857 145.456L120.689 146.112C120.401 145.429 119.83 145.088 118.977 145.088C118.582 145.088 118.246 145.184 117.969 145.376C117.692 145.557 117.553 145.819 117.553 146.16ZM124.381 146.16C124.381 146.469 124.536 146.72 124.845 146.912C125.154 147.093 125.528 147.243 125.965 147.36C126.402 147.467 126.84 147.595 127.277 147.744C127.714 147.883 128.088 148.128 128.397 148.48C128.706 148.821 128.861 149.264 128.861 149.808C128.861 150.533 128.578 151.115 128.013 151.552C127.458 151.989 126.744 152.208 125.869 152.208C125.09 152.208 124.424 152.037 123.869 151.696C123.314 151.355 122.92 150.901 122.685 150.336L123.885 149.648C124.013 150.032 124.253 150.336 124.605 150.56C124.957 150.784 125.378 150.896 125.869 150.896C126.328 150.896 126.706 150.811 127.005 150.64C127.304 150.459 127.453 150.181 127.453 149.808C127.453 149.499 127.298 149.253 126.989 149.072C126.68 148.88 126.306 148.731 125.869 148.624C125.432 148.507 124.994 148.373 124.557 148.224C124.12 148.075 123.746 147.829 123.437 147.488C123.128 147.147 122.973 146.709 122.973 146.176C122.973 145.483 123.24 144.912 123.773 144.464C124.317 144.016 124.994 143.792 125.805 143.792C126.456 143.792 127.032 143.941 127.533 144.24C128.045 144.528 128.429 144.933 128.685 145.456L127.517 146.112C127.229 145.429 126.658 145.088 125.805 145.088C125.41 145.088 125.074 145.184 124.797 145.376C124.52 145.557 124.381 145.819 124.381 146.16ZM130.431 152V140.32H131.823V152H130.431ZM139.531 144H141.019L137.755 152.496C137.413 153.403 136.933 154.091 136.315 154.56C135.707 155.04 135.003 155.253 134.203 155.2V153.904C135.184 153.979 135.904 153.435 136.363 152.272L136.507 151.968L133.019 144H134.507L137.227 150.272L139.531 144ZM150.533 145.344H148.405V149.68C148.405 150.075 148.48 150.357 148.629 150.528C148.789 150.688 149.029 150.773 149.349 150.784C149.669 150.784 150.064 150.773 150.533 150.752V152C149.317 152.16 148.426 152.064 147.861 151.712C147.296 151.349 147.013 150.672 147.013 149.68V145.344H145.429V144H147.013V142.176L148.405 141.76V144H150.533V145.344ZM153.62 145.344C154.079 144.352 154.911 143.856 156.116 143.856V145.312C155.433 145.28 154.847 145.461 154.356 145.856C153.865 146.251 153.62 146.885 153.62 147.76V152H152.228V144H153.62V145.344ZM163.664 144H165.056V152H163.664V150.624C162.971 151.68 161.963 152.208 160.64 152.208C159.52 152.208 158.566 151.803 157.776 150.992C156.987 150.171 156.592 149.173 156.592 148C156.592 146.827 156.987 145.835 157.776 145.024C158.566 144.203 159.52 143.792 160.64 143.792C161.963 143.792 162.971 144.32 163.664 145.376V144ZM160.816 150.864C161.627 150.864 162.304 150.592 162.848 150.048C163.392 149.493 163.664 148.811 163.664 148C163.664 147.189 163.392 146.512 162.848 145.968C162.304 145.413 161.627 145.136 160.816 145.136C160.016 145.136 159.344 145.413 158.8 145.968C158.256 146.512 157.984 147.189 157.984 148C157.984 148.811 158.256 149.493 158.8 150.048C159.344 150.592 160.016 150.864 160.816 150.864ZM171.149 143.792C172.088 143.792 172.84 144.091 173.405 144.688C173.971 145.275 174.253 146.075 174.253 147.088V152H172.861V147.168C172.861 146.517 172.685 146.016 172.333 145.664C171.981 145.301 171.496 145.12 170.877 145.12C170.184 145.12 169.624 145.339 169.197 145.776C168.771 146.203 168.557 146.864 168.557 147.76V152H167.165V144H168.557V145.152C169.123 144.245 169.987 143.792 171.149 143.792ZM177.397 146.16C177.397 146.469 177.551 146.72 177.861 146.912C178.17 147.093 178.543 147.243 178.981 147.36C179.418 147.467 179.855 147.595 180.293 147.744C180.73 147.883 181.103 148.128 181.413 148.48C181.722 148.821 181.877 149.264 181.877 149.808C181.877 150.533 181.594 151.115 181.029 151.552C180.474 151.989 179.759 152.208 178.885 152.208C178.106 152.208 177.439 152.037 176.885 151.696C176.33 151.355 175.935 150.901 175.701 150.336L176.901 149.648C177.029 150.032 177.269 150.336 177.621 150.56C177.973 150.784 178.394 150.896 178.885 150.896C179.343 150.896 179.722 150.811 180.021 150.64C180.319 150.459 180.469 150.181 180.469 149.808C180.469 149.499 180.314 149.253 180.005 149.072C179.695 148.88 179.322 148.731 178.885 148.624C178.447 148.507 178.01 148.373 177.573 148.224C177.135 148.075 176.762 147.829 176.453 147.488C176.143 147.147 175.989 146.709 175.989 146.176C175.989 145.483 176.255 144.912 176.789 144.464C177.333 144.016 178.01 143.792 178.821 143.792C179.471 143.792 180.047 143.941 180.549 144.24C181.061 144.528 181.445 144.933 181.701 145.456L180.533 146.112C180.245 145.429 179.674 145.088 178.821 145.088C178.426 145.088 178.09 145.184 177.813 145.376C177.535 145.557 177.397 145.819 177.397 146.16ZM187.465 141.936C186.057 141.819 185.353 142.427 185.353 143.76V144H187.465V145.344H185.353V152H183.961V145.344H182.681V144H183.961V143.76C183.961 142.683 184.26 141.867 184.857 141.312C185.465 140.757 186.334 140.517 187.465 140.592V141.936ZM194.839 150.992C194.018 151.803 193.021 152.208 191.847 152.208C190.674 152.208 189.677 151.803 188.855 150.992C188.045 150.181 187.639 149.184 187.639 148C187.639 146.816 188.045 145.819 188.855 145.008C189.677 144.197 190.674 143.792 191.847 143.792C193.021 143.792 194.018 144.197 194.839 145.008C195.661 145.819 196.071 146.816 196.071 148C196.071 149.184 195.661 150.181 194.839 150.992ZM191.847 150.848C192.647 150.848 193.319 150.576 193.863 150.032C194.407 149.488 194.679 148.811 194.679 148C194.679 147.189 194.407 146.512 193.863 145.968C193.319 145.424 192.647 145.152 191.847 145.152C191.058 145.152 190.391 145.424 189.847 145.968C189.303 146.512 189.031 147.189 189.031 148C189.031 148.811 189.303 149.488 189.847 150.032C190.391 150.576 191.058 150.848 191.847 150.848ZM199.104 145.344C199.563 144.352 200.395 143.856 201.6 143.856V145.312C200.918 145.28 200.331 145.461 199.84 145.856C199.35 146.251 199.104 146.885 199.104 147.76V152H197.712V144H199.104V145.344ZM211.602 143.792C212.498 143.792 213.224 144.085 213.778 144.672C214.333 145.248 214.61 146.032 214.61 147.024V152H213.218V147.072C213.218 146.453 213.058 145.973 212.738 145.632C212.418 145.291 211.992 145.12 211.458 145.12C210.861 145.12 210.381 145.323 210.018 145.728C209.666 146.123 209.49 146.731 209.49 147.552V152H208.098V147.072C208.098 146.453 207.944 145.973 207.634 145.632C207.336 145.291 206.925 145.12 206.402 145.12C205.816 145.12 205.325 145.323 204.93 145.728C204.546 146.133 204.354 146.741 204.354 147.552V152H202.962V144H204.354V145.072C204.898 144.219 205.693 143.792 206.738 143.792C207.816 143.792 208.6 144.245 209.09 145.152C209.645 144.245 210.482 143.792 211.602 143.792ZM226.124 144H227.612L224.348 152.496C224.007 153.403 223.527 154.091 222.908 154.56C222.3 155.04 221.596 155.253 220.796 155.2V153.904C221.778 153.979 222.498 153.435 222.956 152.272L223.1 151.968L219.612 144H221.1L223.82 150.272L226.124 144ZM235.214 150.992C234.393 151.803 233.396 152.208 232.222 152.208C231.049 152.208 230.052 151.803 229.23 150.992C228.42 150.181 228.014 149.184 228.014 148C228.014 146.816 228.42 145.819 229.23 145.008C230.052 144.197 231.049 143.792 232.222 143.792C233.396 143.792 234.393 144.197 235.214 145.008C236.036 145.819 236.446 146.816 236.446 148C236.446 149.184 236.036 150.181 235.214 150.992ZM232.222 150.848C233.022 150.848 233.694 150.576 234.238 150.032C234.782 149.488 235.054 148.811 235.054 148C235.054 147.189 234.782 146.512 234.238 145.968C233.694 145.424 233.022 145.152 232.222 145.152C231.433 145.152 230.766 145.424 230.222 145.968C229.678 146.512 229.406 147.189 229.406 148C229.406 148.811 229.678 149.488 230.222 150.032C230.766 150.576 231.433 150.848 232.222 150.848ZM243.607 144H244.999V152H243.607V150.848C243.042 151.755 242.178 152.208 241.015 152.208C240.077 152.208 239.325 151.915 238.759 151.328C238.194 150.731 237.911 149.925 237.911 148.912V144H239.303V148.832C239.303 149.483 239.479 149.989 239.831 150.352C240.183 150.704 240.669 150.88 241.287 150.88C241.981 150.88 242.541 150.667 242.967 150.24C243.394 149.803 243.607 149.136 243.607 148.24V144ZM248.511 145.344C248.969 144.352 249.801 143.856 251.007 143.856V145.312C250.324 145.28 249.737 145.461 249.247 145.856C248.756 146.251 248.511 146.885 248.511 147.76V152H247.118V144H248.511V145.344ZM256.368 152V140.32H257.761V152H256.368ZM266.636 150.992C265.815 151.803 264.817 152.208 263.644 152.208C262.471 152.208 261.473 151.803 260.652 150.992C259.841 150.181 259.436 149.184 259.436 148C259.436 146.816 259.841 145.819 260.652 145.008C261.473 144.197 262.471 143.792 263.644 143.792C264.817 143.792 265.815 144.197 266.636 145.008C267.457 145.819 267.868 146.816 267.868 148C267.868 149.184 267.457 150.181 266.636 150.992ZM263.644 150.848C264.444 150.848 265.116 150.576 265.66 150.032C266.204 149.488 266.476 148.811 266.476 148C266.476 147.189 266.204 146.512 265.66 145.968C265.116 145.424 264.444 145.152 263.644 145.152C262.855 145.152 262.188 145.424 261.644 145.968C261.1 146.512 260.828 147.189 260.828 148C260.828 148.811 261.1 149.488 261.644 150.032C262.188 150.576 262.855 150.848 263.644 150.848ZM273.493 143.792C274.432 143.792 275.184 144.091 275.749 144.688C276.314 145.275 276.597 146.075 276.597 147.088V152H275.205V147.168C275.205 146.517 275.029 146.016 274.677 145.664C274.325 145.301 273.84 145.12 273.221 145.12C272.528 145.12 271.968 145.339 271.541 145.776C271.114 146.203 270.901 146.864 270.901 147.76V152H269.509V144H270.901V145.152C271.466 144.245 272.33 143.792 273.493 143.792ZM285.18 144H286.556V151.664C286.556 152.848 286.156 153.765 285.356 154.416C284.556 155.077 283.596 155.408 282.476 155.408C281.58 155.408 280.807 155.237 280.156 154.896C279.506 154.565 279.015 154.085 278.684 153.456L279.9 152.768C280.338 153.664 281.207 154.112 282.508 154.112C283.34 154.112 283.991 153.893 284.46 153.456C284.94 153.019 285.18 152.421 285.18 151.664V150.528C284.476 151.595 283.474 152.128 282.172 152.128C281.031 152.128 280.066 151.723 279.276 150.912C278.487 150.101 278.092 149.115 278.092 147.952C278.092 146.789 278.487 145.808 279.276 145.008C280.066 144.197 281.031 143.792 282.172 143.792C283.484 143.792 284.487 144.32 285.18 145.376V144ZM280.3 149.984C280.844 150.528 281.522 150.8 282.332 150.8C283.143 150.8 283.82 150.528 284.364 149.984C284.908 149.44 285.18 148.763 285.18 147.952C285.18 147.152 284.908 146.48 284.364 145.936C283.82 145.392 283.143 145.12 282.332 145.12C281.522 145.12 280.844 145.392 280.3 145.936C279.756 146.48 279.484 147.152 279.484 147.952C279.484 148.763 279.756 149.44 280.3 149.984ZM299.897 151.136C299.119 151.851 298.111 152.208 296.873 152.208C295.636 152.208 294.623 151.851 293.833 151.136C293.055 150.411 292.665 149.445 292.665 148.24V140.8H294.153V148.176C294.153 148.965 294.388 149.595 294.857 150.064C295.327 150.523 295.999 150.752 296.873 150.752C297.748 150.752 298.42 150.523 298.889 150.064C299.359 149.595 299.593 148.965 299.593 148.176V140.8H301.065V148.24C301.065 149.445 300.676 150.411 299.897 151.136ZM309.981 152L307.469 147.712H304.829V152H303.341V140.8H307.821C308.781 140.8 309.602 141.141 310.285 141.824C310.967 142.496 311.309 143.312 311.309 144.272C311.309 144.997 311.09 145.659 310.653 146.256C310.226 146.853 309.671 147.275 308.989 147.52L311.629 152H309.981ZM304.829 142.192V146.368H307.821C308.375 146.368 308.845 146.165 309.229 145.76C309.623 145.344 309.821 144.848 309.821 144.272C309.821 143.696 309.623 143.205 309.229 142.8C308.845 142.395 308.375 142.192 307.821 142.192H304.829ZM314.61 150.592H319.442V152H313.122V140.8H314.61V150.592ZM321.99 146.16C321.99 146.469 322.145 146.72 322.454 146.912C322.764 147.093 323.137 147.243 323.574 147.36C324.012 147.467 324.449 147.595 324.886 147.744C325.324 147.883 325.697 148.128 326.006 148.48C326.316 148.821 326.47 149.264 326.47 149.808C326.47 150.533 326.188 151.115 325.622 151.552C325.068 151.989 324.353 152.208 323.478 152.208C322.7 152.208 322.033 152.037 321.478 151.696C320.924 151.355 320.529 150.901 320.294 150.336L321.494 149.648C321.622 150.032 321.862 150.336 322.214 150.56C322.566 150.784 322.988 150.896 323.478 150.896C323.937 150.896 324.316 150.811 324.614 150.64C324.913 150.459 325.062 150.181 325.062 149.808C325.062 149.499 324.908 149.253 324.598 149.072C324.289 148.88 323.916 148.731 323.478 148.624C323.041 148.507 322.604 148.373 322.166 148.224C321.729 148.075 321.356 147.829 321.046 147.488C320.737 147.147 320.582 146.709 320.582 146.176C320.582 145.483 320.849 144.912 321.382 144.464C321.926 144.016 322.604 143.792 323.414 143.792C324.065 143.792 324.641 143.941 325.142 144.24C325.654 144.528 326.038 144.933 326.294 145.456L325.126 146.112C324.838 145.429 324.268 145.088 323.414 145.088C323.02 145.088 322.684 145.184 322.406 145.376C322.129 145.557 321.99 145.819 321.99 146.16ZM332.823 142.544C332.556 142.544 332.332 142.453 332.151 142.272C331.969 142.091 331.879 141.872 331.879 141.616C331.879 141.36 331.969 141.141 332.151 140.96C332.332 140.768 332.556 140.672 332.823 140.672C333.079 140.672 333.297 140.768 333.479 140.96C333.66 141.141 333.751 141.36 333.751 141.616C333.751 141.872 333.66 142.091 333.479 142.272C333.297 142.453 333.079 142.544 332.823 142.544ZM332.118 152V144H333.511V152H332.118ZM339.618 143.792C340.557 143.792 341.309 144.091 341.874 144.688C342.439 145.275 342.722 146.075 342.722 147.088V152H341.33V147.168C341.33 146.517 341.154 146.016 340.802 145.664C340.45 145.301 339.965 145.12 339.346 145.12C338.653 145.12 338.093 145.339 337.666 145.776C337.239 146.203 337.026 146.864 337.026 147.76V152H335.634V144H337.026V145.152C337.591 144.245 338.455 143.792 339.618 143.792ZM349.017 145.344H346.889V149.68C346.889 150.075 346.964 150.357 347.113 150.528C347.273 150.688 347.513 150.773 347.833 150.784C348.153 150.784 348.548 150.773 349.017 150.752V152C347.801 152.16 346.911 152.064 346.345 151.712C345.78 151.349 345.497 150.672 345.497 149.68V145.344H343.913V144H345.497V142.176L346.889 141.76V144H349.017V145.344ZM357.011 150.992C356.19 151.803 355.192 152.208 354.019 152.208C352.846 152.208 351.848 151.803 351.027 150.992C350.216 150.181 349.811 149.184 349.811 148C349.811 146.816 350.216 145.819 351.027 145.008C351.848 144.197 352.846 143.792 354.019 143.792C355.192 143.792 356.19 144.197 357.011 145.008C357.832 145.819 358.243 146.816 358.243 148C358.243 149.184 357.832 150.181 357.011 150.992ZM354.019 150.848C354.819 150.848 355.491 150.576 356.035 150.032C356.579 149.488 356.851 148.811 356.851 148C356.851 147.189 356.579 146.512 356.035 145.968C355.491 145.424 354.819 145.152 354.019 145.152C353.23 145.152 352.563 145.424 352.019 145.968C351.475 146.512 351.203 147.189 351.203 148C351.203 148.811 351.475 149.488 352.019 150.032C352.563 150.576 353.23 150.848 354.019 150.848ZM367.612 152.208C366.407 152.208 365.399 151.803 364.588 150.992C363.788 150.181 363.388 149.184 363.388 148C363.388 146.805 363.788 145.808 364.588 145.008C365.399 144.197 366.407 143.792 367.612 143.792C368.391 143.792 369.1 143.979 369.74 144.352C370.38 144.725 370.86 145.227 371.18 145.856L369.692 146.72C369.511 146.336 369.233 146.037 368.86 145.824C368.497 145.6 368.076 145.488 367.596 145.488C366.892 145.488 366.3 145.728 365.82 146.208C365.351 146.688 365.116 147.285 365.116 148C365.116 148.715 365.351 149.312 365.82 149.792C366.3 150.272 366.892 150.512 367.596 150.512C368.065 150.512 368.487 150.4 368.86 150.176C369.244 149.952 369.532 149.653 369.724 149.28L371.212 150.128C370.871 150.768 370.38 151.275 369.74 151.648C369.1 152.021 368.391 152.208 367.612 152.208ZM376.112 152.208C374.939 152.208 373.941 151.803 373.12 150.992C372.299 150.181 371.888 149.184 371.888 148C371.888 146.816 372.299 145.819 373.12 145.008C373.941 144.197 374.939 143.792 376.112 143.792C377.296 143.792 378.293 144.197 379.104 145.008C379.925 145.819 380.336 146.816 380.336 148C380.336 149.184 379.925 150.181 379.104 150.992C378.293 151.803 377.296 152.208 376.112 152.208ZM374.336 149.808C374.816 150.288 375.408 150.528 376.112 150.528C376.816 150.528 377.408 150.288 377.888 149.808C378.368 149.328 378.608 148.725 378.608 148C378.608 147.275 378.368 146.672 377.888 146.192C377.408 145.712 376.816 145.472 376.112 145.472C375.408 145.472 374.816 145.712 374.336 146.192C373.856 146.672 373.616 147.275 373.616 148C373.616 148.725 373.856 149.328 374.336 149.808ZM386.107 143.792C387.024 143.792 387.765 144.085 388.331 144.672C388.896 145.259 389.179 146.064 389.179 147.088V152H387.451V147.264C387.451 146.667 387.291 146.208 386.971 145.888C386.651 145.568 386.213 145.408 385.659 145.408C385.051 145.408 384.56 145.6 384.187 145.984C383.813 146.357 383.627 146.933 383.627 147.712V152H381.899V144H383.627V145.024C384.149 144.203 384.976 143.792 386.107 143.792ZM394.815 152.208C393.61 152.208 392.602 151.803 391.791 150.992C390.991 150.181 390.591 149.184 390.591 148C390.591 146.805 390.991 145.808 391.791 145.008C392.602 144.197 393.61 143.792 394.815 143.792C395.594 143.792 396.303 143.979 396.943 144.352C397.583 144.725 398.063 145.227 398.383 145.856L396.895 146.72C396.714 146.336 396.437 146.037 396.063 145.824C395.701 145.6 395.279 145.488 394.799 145.488C394.095 145.488 393.503 145.728 393.023 146.208C392.554 146.688 392.319 147.285 392.319 148C392.319 148.715 392.554 149.312 393.023 149.792C393.503 150.272 394.095 150.512 394.799 150.512C395.269 150.512 395.69 150.4 396.063 150.176C396.447 149.952 396.735 149.653 396.927 149.28L398.415 150.128C398.074 150.768 397.583 151.275 396.943 151.648C396.303 152.021 395.594 152.208 394.815 152.208ZM401.296 142.48C401.083 142.693 400.827 142.8 400.528 142.8C400.23 142.8 399.968 142.693 399.744 142.48C399.531 142.256 399.424 141.995 399.424 141.696C399.424 141.397 399.531 141.141 399.744 140.928C399.958 140.704 400.219 140.592 400.528 140.592C400.838 140.592 401.099 140.704 401.312 140.928C401.526 141.141 401.632 141.397 401.632 141.696C401.632 141.995 401.52 142.256 401.296 142.48ZM399.664 152V144H401.392V152H399.664ZM404.904 146.208C404.904 146.475 405.048 146.688 405.336 146.848C405.634 146.997 405.992 147.131 406.408 147.248C406.834 147.355 407.261 147.483 407.688 147.632C408.114 147.781 408.472 148.037 408.76 148.4C409.058 148.752 409.208 149.2 409.208 149.744C409.208 150.512 408.909 151.115 408.312 151.552C407.725 151.989 406.984 152.208 406.088 152.208C405.298 152.208 404.621 152.043 404.056 151.712C403.49 151.381 403.08 150.923 402.824 150.336L404.312 149.472C404.589 150.24 405.181 150.624 406.088 150.624C406.994 150.624 407.448 150.325 407.448 149.728C407.448 149.472 407.298 149.264 407 149.104C406.712 148.944 406.354 148.811 405.928 148.704C405.512 148.587 405.09 148.453 404.664 148.304C404.237 148.155 403.874 147.909 403.576 147.568C403.288 147.216 403.144 146.773 403.144 146.24C403.144 145.504 403.421 144.912 403.976 144.464C404.541 144.016 405.24 143.792 406.072 143.792C406.733 143.792 407.32 143.941 407.832 144.24C408.354 144.528 408.754 144.933 409.032 145.456L407.576 146.272C407.298 145.664 406.797 145.36 406.072 145.36C405.741 145.36 405.464 145.435 405.24 145.584C405.016 145.723 404.904 145.931 404.904 146.208ZM411.884 148.736C412.012 149.344 412.305 149.813 412.764 150.144C413.222 150.464 413.782 150.624 414.444 150.624C415.361 150.624 416.049 150.293 416.508 149.632L417.932 150.464C417.142 151.627 415.974 152.208 414.428 152.208C413.126 152.208 412.076 151.813 411.276 151.024C410.476 150.224 410.076 149.216 410.076 148C410.076 146.805 410.47 145.808 411.26 145.008C412.049 144.197 413.062 143.792 414.3 143.792C415.473 143.792 416.433 144.203 417.18 145.024C417.937 145.845 418.316 146.843 418.316 148.016C418.316 148.197 418.294 148.437 418.252 148.736H411.884ZM411.868 147.328H416.572C416.454 146.677 416.182 146.187 415.756 145.856C415.34 145.525 414.849 145.36 414.284 145.36C413.644 145.36 413.11 145.536 412.684 145.888C412.257 146.24 411.985 146.72 411.868 147.328ZM430.508 144H431.9V152H430.508V150.624C429.815 151.68 428.807 152.208 427.484 152.208C426.364 152.208 425.409 151.803 424.62 150.992C423.831 150.171 423.436 149.173 423.436 148C423.436 146.827 423.831 145.835 424.62 145.024C425.409 144.203 426.364 143.792 427.484 143.792C428.807 143.792 429.815 144.32 430.508 145.376V144ZM427.66 150.864C428.471 150.864 429.148 150.592 429.692 150.048C430.236 149.493 430.508 148.811 430.508 148C430.508 147.189 430.236 146.512 429.692 145.968C429.148 145.413 428.471 145.136 427.66 145.136C426.86 145.136 426.188 145.413 425.644 145.968C425.1 146.512 424.828 147.189 424.828 148C424.828 148.811 425.1 149.493 425.644 150.048C426.188 150.592 426.86 150.864 427.66 150.864ZM437.993 143.792C438.932 143.792 439.684 144.091 440.249 144.688C440.814 145.275 441.097 146.075 441.097 147.088V152H439.705V147.168C439.705 146.517 439.529 146.016 439.177 145.664C438.825 145.301 438.34 145.12 437.721 145.12C437.028 145.12 436.468 145.339 436.041 145.776C435.614 146.203 435.401 146.864 435.401 147.76V152H434.009V144H435.401V145.152C435.966 144.245 436.83 143.792 437.993 143.792ZM449.664 140.8H451.056V152H449.664V150.624C448.971 151.68 447.963 152.208 446.64 152.208C445.52 152.208 444.566 151.803 443.776 150.992C442.987 150.171 442.592 149.173 442.592 148C442.592 146.827 442.987 145.835 443.776 145.024C444.566 144.203 445.52 143.792 446.64 143.792C447.963 143.792 448.971 144.32 449.664 145.376V140.8ZM446.816 150.864C447.627 150.864 448.304 150.592 448.848 150.048C449.392 149.493 449.664 148.811 449.664 148C449.664 147.189 449.392 146.512 448.848 145.968C448.304 145.413 447.627 145.136 446.816 145.136C446.016 145.136 445.344 145.413 444.8 145.968C444.256 146.512 443.984 147.189 443.984 148C443.984 148.811 444.256 149.493 444.8 150.048C445.344 150.592 446.016 150.864 446.816 150.864ZM458.669 146.208C458.669 146.475 458.813 146.688 459.101 146.848C459.4 146.997 459.757 147.131 460.173 147.248C460.6 147.355 461.027 147.483 461.453 147.632C461.88 147.781 462.237 148.037 462.525 148.4C462.824 148.752 462.973 149.2 462.973 149.744C462.973 150.512 462.675 151.115 462.077 151.552C461.491 151.989 460.749 152.208 459.853 152.208C459.064 152.208 458.387 152.043 457.821 151.712C457.256 151.381 456.845 150.923 456.589 150.336L458.077 149.472C458.355 150.24 458.947 150.624 459.853 150.624C460.76 150.624 461.213 150.325 461.213 149.728C461.213 149.472 461.064 149.264 460.765 149.104C460.477 148.944 460.12 148.811 459.693 148.704C459.277 148.587 458.856 148.453 458.429 148.304C458.003 148.155 457.64 147.909 457.341 147.568C457.053 147.216 456.909 146.773 456.909 146.24C456.909 145.504 457.187 144.912 457.741 144.464C458.307 144.016 459.005 143.792 459.837 143.792C460.499 143.792 461.085 143.941 461.597 144.24C462.12 144.528 462.52 144.933 462.797 145.456L461.341 146.272C461.064 145.664 460.563 145.36 459.837 145.36C459.507 145.36 459.229 145.435 459.005 145.584C458.781 145.723 458.669 145.931 458.669 146.208ZM468.607 143.792C469.524 143.792 470.265 144.085 470.831 144.672C471.396 145.259 471.679 146.064 471.679 147.088V152H469.951V147.264C469.951 146.667 469.791 146.208 469.471 145.888C469.151 145.568 468.713 145.408 468.159 145.408C467.551 145.408 467.06 145.6 466.687 145.984C466.313 146.357 466.127 146.933 466.127 147.712V152H464.399V140.8H466.127V145.024C466.649 144.203 467.476 143.792 468.607 143.792ZM479.875 144H481.603V152H479.875V150.848C479.225 151.755 478.291 152.208 477.075 152.208C475.977 152.208 475.038 151.803 474.259 150.992C473.481 150.171 473.091 149.173 473.091 148C473.091 146.816 473.481 145.819 474.259 145.008C475.038 144.197 475.977 143.792 477.075 143.792C478.291 143.792 479.225 144.24 479.875 145.136V144ZM475.539 149.84C476.019 150.32 476.622 150.56 477.347 150.56C478.073 150.56 478.675 150.32 479.155 149.84C479.635 149.349 479.875 148.736 479.875 148C479.875 147.264 479.635 146.656 479.155 146.176C478.675 145.685 478.073 145.44 477.347 145.44C476.622 145.44 476.019 145.685 475.539 146.176C475.059 146.656 474.819 147.264 474.819 148C474.819 148.736 475.059 149.349 475.539 149.84ZM485.345 145.344C485.783 144.352 486.604 143.856 487.809 143.856V145.728C487.148 145.685 486.572 145.845 486.081 146.208C485.591 146.56 485.345 147.147 485.345 147.968V152H483.617V144H485.345V145.344ZM490.071 148.736C490.199 149.344 490.492 149.813 490.951 150.144C491.41 150.464 491.97 150.624 492.631 150.624C493.548 150.624 494.236 150.293 494.695 149.632L496.119 150.464C495.33 151.627 494.162 152.208 492.615 152.208C491.314 152.208 490.263 151.813 489.463 151.024C488.663 150.224 488.263 149.216 488.263 148C488.263 146.805 488.658 145.808 489.447 145.008C490.236 144.197 491.25 143.792 492.487 143.792C493.66 143.792 494.62 144.203 495.367 145.024C496.124 145.845 496.503 146.843 496.503 148.016C496.503 148.197 496.482 148.437 496.439 148.736H490.071ZM490.055 147.328H494.759C494.642 146.677 494.37 146.187 493.943 145.856C493.527 145.525 493.036 145.36 492.471 145.36C491.831 145.36 491.298 145.536 490.871 145.888C490.444 146.24 490.172 146.72 490.055 147.328ZM504.313 144H506.041V152H504.313V150.848C503.662 151.755 502.729 152.208 501.513 152.208C500.414 152.208 499.475 151.803 498.697 150.992C497.918 150.171 497.529 149.173 497.529 148C497.529 146.816 497.918 145.819 498.697 145.008C499.475 144.197 500.414 143.792 501.513 143.792C502.729 143.792 503.662 144.24 504.313 145.136V144ZM499.977 149.84C500.457 150.32 501.059 150.56 501.785 150.56C502.51 150.56 503.113 150.32 503.593 149.84C504.073 149.349 504.313 148.736 504.313 148C504.313 147.264 504.073 146.656 503.593 146.176C503.113 145.685 502.51 145.44 501.785 145.44C501.059 145.44 500.457 145.685 499.977 146.176C499.497 146.656 499.257 147.264 499.257 148C499.257 148.736 499.497 149.349 499.977 149.84ZM512.583 143.792C513.682 143.792 514.62 144.197 515.399 145.008C516.178 145.819 516.567 146.816 516.567 148C516.567 149.173 516.178 150.171 515.399 150.992C514.62 151.803 513.682 152.208 512.583 152.208C511.367 152.208 510.434 151.755 509.783 150.848V152H508.055V140.8H509.783V145.136C510.434 144.24 511.367 143.792 512.583 143.792ZM510.503 149.84C510.983 150.32 511.586 150.56 512.311 150.56C513.036 150.56 513.639 150.32 514.119 149.84C514.599 149.349 514.839 148.736 514.839 148C514.839 147.264 514.599 146.656 514.119 146.176C513.639 145.685 513.036 145.44 512.311 145.44C511.586 145.44 510.983 145.685 510.503 146.176C510.023 146.656 509.783 147.264 509.783 148C509.783 148.736 510.023 149.349 510.503 149.84ZM518.133 152V140.32H519.861V152H518.133ZM523.227 148.736C523.355 149.344 523.649 149.813 524.107 150.144C524.566 150.464 525.126 150.624 525.787 150.624C526.705 150.624 527.393 150.293 527.851 149.632L529.275 150.464C528.486 151.627 527.318 152.208 525.771 152.208C524.47 152.208 523.419 151.813 522.619 151.024C521.819 150.224 521.419 149.216 521.419 148C521.419 146.805 521.814 145.808 522.603 145.008C523.393 144.197 524.406 143.792 525.643 143.792C526.817 143.792 527.777 144.203 528.523 145.024C529.281 145.845 529.659 146.843 529.659 148.016C529.659 148.197 529.638 148.437 529.595 148.736H523.227ZM523.211 147.328H527.915C527.798 146.677 527.526 146.187 527.099 145.856C526.683 145.525 526.193 145.36 525.627 145.36C524.987 145.36 524.454 145.536 524.027 145.888C523.601 146.24 523.329 146.72 523.211 147.328ZM535.18 152V140.32H536.908V152H535.18ZM540.546 142.48C540.333 142.693 540.077 142.8 539.778 142.8C539.48 142.8 539.218 142.693 538.994 142.48C538.781 142.256 538.674 141.995 538.674 141.696C538.674 141.397 538.781 141.141 538.994 140.928C539.208 140.704 539.469 140.592 539.778 140.592C540.088 140.592 540.349 140.704 540.562 140.928C540.776 141.141 540.882 141.397 540.882 141.696C540.882 141.995 540.77 142.256 540.546 142.48ZM538.914 152V144H540.642V152H538.914ZM546.857 143.792C547.774 143.792 548.515 144.085 549.081 144.672C549.646 145.259 549.929 146.064 549.929 147.088V152H548.201V147.264C548.201 146.667 548.041 146.208 547.721 145.888C547.401 145.568 546.963 145.408 546.409 145.408C545.801 145.408 545.31 145.6 544.937 145.984C544.563 146.357 544.377 146.933 544.377 147.712V152H542.649V144H544.377V145.024C544.899 144.203 545.726 143.792 546.857 143.792ZM558.861 152H556.797L553.517 148.304V152H551.789V140.8H553.517V147.536L556.621 144H558.733L555.213 147.92L558.861 152ZM561.013 146.208C561.013 146.475 561.157 146.688 561.445 146.848C561.744 146.997 562.101 147.131 562.517 147.248C562.944 147.355 563.37 147.483 563.797 147.632C564.224 147.781 564.581 148.037 564.869 148.4C565.168 148.752 565.317 149.2 565.317 149.744C565.317 150.512 565.018 151.115 564.421 151.552C563.834 151.989 563.093 152.208 562.197 152.208C561.408 152.208 560.73 152.043 560.165 151.712C559.6 151.381 559.189 150.923 558.933 150.336L560.421 149.472C560.698 150.24 561.29 150.624 562.197 150.624C563.104 150.624 563.557 150.325 563.557 149.728C563.557 149.472 563.408 149.264 563.109 149.104C562.821 148.944 562.464 148.811 562.037 148.704C561.621 148.587 561.2 148.453 560.773 148.304C560.346 148.155 559.984 147.909 559.685 147.568C559.397 147.216 559.253 146.773 559.253 146.24C559.253 145.504 559.53 144.912 560.085 144.464C560.65 144.016 561.349 143.792 562.181 143.792C562.842 143.792 563.429 143.941 563.941 144.24C564.464 144.528 564.864 144.933 565.141 145.456L563.685 146.272C563.408 145.664 562.906 145.36 562.181 145.36C561.85 145.36 561.573 145.435 561.349 145.584C561.125 145.723 561.013 145.931 561.013 146.208ZM580.308 144H581.764L579.284 152H577.86L575.988 146.08L574.116 152H572.692L570.212 144H571.668L573.428 150.08L575.316 144H576.66L578.548 150.096L580.308 144ZM583.901 142.544C583.634 142.544 583.41 142.453 583.229 142.272C583.047 142.091 582.957 141.872 582.957 141.616C582.957 141.36 583.047 141.141 583.229 140.96C583.41 140.768 583.634 140.672 583.901 140.672C584.157 140.672 584.375 140.768 584.557 140.96C584.738 141.141 584.829 141.36 584.829 141.616C584.829 141.872 584.738 142.091 584.557 142.272C584.375 142.453 584.157 142.544 583.901 142.544ZM583.197 152V144H584.589V152H583.197ZM591.064 145.344H588.936V149.68C588.936 150.075 589.011 150.357 589.16 150.528C589.32 150.688 589.56 150.773 589.88 150.784C590.2 150.784 590.595 150.773 591.064 150.752V152C589.848 152.16 588.958 152.064 588.392 151.712C587.827 151.349 587.544 150.672 587.544 149.68V145.344H585.96V144H587.544V142.176L588.936 141.76V144H591.064V145.344ZM596.696 143.792C597.635 143.792 598.387 144.091 598.952 144.688C599.518 145.275 599.8 146.075 599.8 147.088V152H598.408V147.168C598.408 146.517 598.232 146.016 597.88 145.664C597.528 145.301 597.043 145.12 596.424 145.12C595.731 145.12 595.171 145.339 594.744 145.776C594.318 146.203 594.104 146.864 594.104 147.76V152H592.712V140.8H594.104V145.152C594.67 144.245 595.534 143.792 596.696 143.792ZM606.799 142.544C606.533 142.544 606.309 142.453 606.128 142.272C605.946 142.091 605.856 141.872 605.856 141.616C605.856 141.36 605.946 141.141 606.128 140.96C606.309 140.768 606.533 140.672 606.799 140.672C607.056 140.672 607.274 140.768 607.456 140.96C607.637 141.141 607.728 141.36 607.728 141.616C607.728 141.872 607.637 142.091 607.456 142.272C607.274 142.453 607.056 142.544 606.799 142.544ZM606.096 152.48V144H607.488V152.48C607.488 153.515 607.226 154.277 606.704 154.768C606.181 155.269 605.413 155.483 604.399 155.408V154.064C604.986 154.117 605.413 154.021 605.68 153.776C605.957 153.531 606.096 153.099 606.096 152.48ZM615.123 144H616.515V152H615.123V150.848C614.558 151.755 613.694 152.208 612.531 152.208C611.592 152.208 610.84 151.915 610.275 151.328C609.71 150.731 609.427 149.925 609.427 148.912V144H610.819V148.832C610.819 149.483 610.995 149.989 611.347 150.352C611.699 150.704 612.184 150.88 612.803 150.88C613.496 150.88 614.056 150.667 614.483 150.24C614.91 149.803 615.123 149.136 615.123 148.24V144ZM619.819 146.16C619.819 146.469 619.973 146.72 620.283 146.912C620.592 147.093 620.965 147.243 621.403 147.36C621.84 147.467 622.277 147.595 622.715 147.744C623.152 147.883 623.525 148.128 623.835 148.48C624.144 148.821 624.299 149.264 624.299 149.808C624.299 150.533 624.016 151.115 623.451 151.552C622.896 151.989 622.181 152.208 621.307 152.208C620.528 152.208 619.861 152.037 619.307 151.696C618.752 151.355 618.357 150.901 618.123 150.336L619.323 149.648C619.451 150.032 619.691 150.336 620.043 150.56C620.395 150.784 620.816 150.896 621.307 150.896C621.765 150.896 622.144 150.811 622.443 150.64C622.741 150.459 622.891 150.181 622.891 149.808C622.891 149.499 622.736 149.253 622.427 149.072C622.117 148.88 621.744 148.731 621.307 148.624C620.869 148.507 620.432 148.373 619.995 148.224C619.557 148.075 619.184 147.829 618.875 147.488C618.565 147.147 618.411 146.709 618.411 146.176C618.411 145.483 618.677 144.912 619.211 144.464C619.755 144.016 620.432 143.792 621.243 143.792C621.893 143.792 622.469 143.941 622.971 144.24C623.483 144.528 623.867 144.933 624.123 145.456L622.955 146.112C622.667 145.429 622.096 145.088 621.243 145.088C620.848 145.088 620.512 145.184 620.235 145.376C619.957 145.557 619.819 145.819 619.819 146.16ZM629.986 145.344H627.858V149.68C627.858 150.075 627.933 150.357 628.082 150.528C628.242 150.688 628.482 150.773 628.802 150.784C629.122 150.784 629.517 150.773 629.986 150.752V152C628.77 152.16 627.879 152.064 627.314 151.712C626.749 151.349 626.466 150.672 626.466 149.68V145.344H624.882V144H626.466V142.176L627.858 141.76V144H629.986V145.344ZM639.793 141.936C638.385 141.819 637.681 142.427 637.681 143.76V144H639.793V145.344H637.681V152H636.289V145.344H635.009V144H636.289V143.76C636.289 142.683 636.588 141.867 637.185 141.312C637.793 140.757 638.662 140.517 639.793 140.592V141.936ZM641.391 148.64C641.53 149.355 641.855 149.909 642.367 150.304C642.89 150.699 643.53 150.896 644.287 150.896C645.343 150.896 646.111 150.507 646.591 149.728L647.775 150.4C646.997 151.605 645.823 152.208 644.255 152.208C642.986 152.208 641.951 151.813 641.151 151.024C640.362 150.224 639.967 149.216 639.967 148C639.967 146.795 640.357 145.792 641.135 144.992C641.914 144.192 642.922 143.792 644.159 143.792C645.333 143.792 646.287 144.208 647.023 145.04C647.77 145.861 648.143 146.853 648.143 148.016C648.143 148.219 648.127 148.427 648.095 148.64H641.391ZM644.159 145.104C643.413 145.104 642.794 145.317 642.303 145.744C641.813 146.16 641.509 146.72 641.391 147.424H646.735C646.618 146.667 646.319 146.091 645.839 145.696C645.359 145.301 644.799 145.104 644.159 145.104ZM658.855 144H660.311L657.831 152H656.407L654.535 146.08L652.663 152H651.239L648.759 144H650.215L651.975 150.08L653.863 144H655.207L657.095 150.096L658.855 144ZM669.504 152.208C668.298 152.208 667.296 151.808 666.496 151.008C665.696 150.197 665.296 149.195 665.296 148C665.296 146.805 665.696 145.808 666.496 145.008C667.296 144.197 668.298 143.792 669.504 143.792C670.293 143.792 671.002 143.984 671.632 144.368C672.261 144.741 672.73 145.248 673.04 145.888L671.872 146.56C671.669 146.133 671.354 145.792 670.928 145.536C670.512 145.28 670.037 145.152 669.504 145.152C668.704 145.152 668.032 145.424 667.488 145.968C666.954 146.512 666.688 147.189 666.688 148C666.688 148.8 666.954 149.472 667.488 150.016C668.032 150.56 668.704 150.832 669.504 150.832C670.037 150.832 670.517 150.709 670.944 150.464C671.37 150.208 671.696 149.867 671.92 149.44L673.104 150.128C672.762 150.757 672.272 151.264 671.632 151.648C670.992 152.021 670.282 152.208 669.504 152.208ZM674.478 152V140.32H675.87V152H674.478ZM678.698 142.544C678.431 142.544 678.207 142.453 678.026 142.272C677.844 142.091 677.754 141.872 677.754 141.616C677.754 141.36 677.844 141.141 678.026 140.96C678.207 140.768 678.431 140.672 678.698 140.672C678.954 140.672 679.172 140.768 679.354 140.96C679.535 141.141 679.626 141.36 679.626 141.616C679.626 141.872 679.535 142.091 679.354 142.272C679.172 142.453 678.954 142.544 678.698 142.544ZM677.993 152V144H679.386V152H677.993ZM685.269 152.208C684.064 152.208 683.061 151.808 682.261 151.008C681.461 150.197 681.061 149.195 681.061 148C681.061 146.805 681.461 145.808 682.261 145.008C683.061 144.197 684.064 143.792 685.269 143.792C686.058 143.792 686.768 143.984 687.397 144.368C688.026 144.741 688.496 145.248 688.805 145.888L687.637 146.56C687.434 146.133 687.12 145.792 686.693 145.536C686.277 145.28 685.802 145.152 685.269 145.152C684.469 145.152 683.797 145.424 683.253 145.968C682.72 146.512 682.453 147.189 682.453 148C682.453 148.8 682.72 149.472 683.253 150.016C683.797 150.56 684.469 150.832 685.269 150.832C685.802 150.832 686.282 150.709 686.709 150.464C687.136 150.208 687.461 149.867 687.685 149.44L688.869 150.128C688.528 150.757 688.037 151.264 687.397 151.648C686.757 152.021 686.048 152.208 685.269 152.208ZM697.012 152H695.284L691.636 148.208V152H690.243V140.8H691.636V147.536L695.092 144H696.884L693.06 147.872L697.012 152ZM698.897 146.16C698.897 146.469 699.051 146.72 699.361 146.912C699.67 147.093 700.043 147.243 700.481 147.36C700.918 147.467 701.355 147.595 701.793 147.744C702.23 147.883 702.603 148.128 702.913 148.48C703.222 148.821 703.377 149.264 703.377 149.808C703.377 150.533 703.094 151.115 702.529 151.552C701.974 151.989 701.259 152.208 700.385 152.208C699.606 152.208 698.939 152.037 698.385 151.696C697.83 151.355 697.435 150.901 697.201 150.336L698.401 149.648C698.529 150.032 698.769 150.336 699.121 150.56C699.473 150.784 699.894 150.896 700.385 150.896C700.843 150.896 701.222 150.811 701.521 150.64C701.819 150.459 701.969 150.181 701.969 149.808C701.969 149.499 701.814 149.253 701.505 149.072C701.195 148.88 700.822 148.731 700.385 148.624C699.947 148.507 699.51 148.373 699.073 148.224C698.635 148.075 698.262 147.829 697.953 147.488C697.643 147.147 697.489 146.709 697.489 146.176C697.489 145.483 697.755 144.912 698.289 144.464C698.833 144.016 699.51 143.792 700.321 143.792C700.971 143.792 701.547 143.941 702.049 144.24C702.561 144.528 702.945 144.933 703.201 145.456L702.033 146.112C701.745 145.429 701.174 145.088 700.321 145.088C699.926 145.088 699.59 145.184 699.313 145.376C699.035 145.557 698.897 145.819 698.897 146.16ZM705.733 152.176C705.445 152.176 705.2 152.075 704.997 151.872C704.794 151.669 704.693 151.424 704.693 151.136C704.693 150.848 704.794 150.603 704.997 150.4C705.2 150.197 705.445 150.096 705.733 150.096C706.032 150.096 706.277 150.197 706.469 150.4C706.672 150.603 706.773 150.848 706.773 151.136C706.773 151.424 706.672 151.669 706.469 151.872C706.277 152.075 706.032 152.176 705.733 152.176Z" fill="#141414"/>
<rect x="0.25" y="0.25" width="767.5" height="199.5" rx="23.75" stroke="#005AE2" stroke-width="0.5"/>
</g>
<defs>
<filter id="filter0_b_1_141" x="-212" y="-212" width="1192" height="624" filterUnits="userSpaceOnUse" color-interpolation-filters="sRGB">
<feFlood flood-opacity="0" result="BackgroundImageFix"/>
<feGaussianBlur in="BackgroundImageFix" stdDeviation="106"/>
<feComposite in2="SourceAlpha" operator="in" result="effect1_backgroundBlur_1_141"/>
<feBlend mode="normal" in="SourceGraphic" in2="effect1_backgroundBlur_1_141" result="shape"/>
</filter>
</defs>
</svg>
